<svg width="16" height="16" viewBox="0 0 16 16" fill="none" xmlns="http://www.w3.org/2000/svg">
<rect width="16" height="16" rx="8" fill="#624BFF"/>
<mask id="mask0_2123_1645" style="mask-type:luminance" maskUnits="userSpaceOnUse" x="2" y="3" width="12" height="10">
<path d="M2 3.79998L2 12.0283H13.99V3.79998H2Z" fill="white"/>
</mask>
<g mask="url(#mask0_2123_1645)">
<path d="M13.99 7.91427C13.99 8.23317 13.908 8.55207 13.7438 8.83652L12.4335 11.1064C12.2677 11.3937 12.0291 11.6262 11.7491 11.7859C11.3508 12.013 11.0278 11.8277 11.0278 11.3694C11.0278 11.1596 11.4136 10.7049 11.4947 10.5643L12.805 8.29439C12.9405 8.06001 12.9405 7.76886 12.805 7.53447L11.4947 5.2646C11.4133 5.12397 11.0278 4.66923 11.0278 4.4594C11.0278 4.00116 11.3511 3.8162 11.7491 4.04293C12.0291 4.20269 12.2677 4.43485 12.4335 4.72249L13.7438 6.99236C13.908 7.27681 13.99 7.5957 13.99 7.91459V7.91427Z" fill="white"/>
<path d="M10.9289 7.91431C10.9289 8.2332 10.8469 8.5521 10.6827 8.83655L9.37236 11.1064C9.04357 11.675 8.43165 12.0283 7.77471 12.0283H5.15375C4.49684 12.0283 3.88489 11.675 3.55643 11.1061L2.2461 8.83623C1.91764 8.26732 1.91764 7.56066 2.2461 6.99176L3.55642 4.72189C3.88488 4.15298 4.49684 3.79965 5.15375 3.79965L7.77471 3.79965C8.43165 3.79965 9.04357 4.15298 9.37204 4.72189L10.6824 6.99176C10.8466 7.2762 10.9285 7.5951 10.9285 7.91399L10.9289 7.91431ZM3.08351 7.91431C3.08351 8.04569 3.11731 8.17708 3.18492 8.29443L4.49556 10.5643C4.63077 10.7987 4.88302 10.9444 5.15375 10.9444H7.77471C8.04547 10.9444 8.29771 10.7987 8.43293 10.5643L9.74326 8.29443C9.87875 8.06004 9.87843 7.76889 9.74326 7.53451L8.43261 5.26464C8.29739 5.03026 8.04515 4.88452 7.77439 4.88452H5.15343C4.8827 4.88452 4.63045 5.03026 4.49524 5.26464L3.18492 7.53451C3.11731 7.65186 3.08351 7.78324 3.08351 7.91463V7.91431Z" fill="white"/>
<path d="M7.10773 6.50095H5.82099C5.71416 6.50095 5.61563 6.55803 5.56205 6.65051L4.91885 7.76471C4.86559 7.85719 4.86559 7.97104 4.91885 8.06351L5.56205 9.17772C5.61531 9.2702 5.71416 9.32727 5.82099 9.32727H7.10773C7.21453 9.32727 7.31307 9.2702 7.36668 9.17772L8.00984 8.06351C8.06313 7.97104 8.06313 7.85719 8.00984 7.76471L7.36668 6.65051C7.31339 6.55803 7.21453 6.50095 7.10773 6.50095Z" fill="white"/>
</g>
</svg>
