<svg width="70" height="48" viewBox="0 0 70 48" fill="none" xmlns="http://www.w3.org/2000/svg">
<g clip-path="url(#clip0_2181_7556)">
<mask id="mask0_2181_7556" style="mask-type:luminance" maskUnits="userSpaceOnUse" x="0" y="0" width="70" height="48">
<path d="M0 0.000106812L0 47.4248L69.1052 47.4248V0.000106812L0 0.000106812Z" fill="white"/>
</mask>
<g mask="url(#mask0_2181_7556)">
<path d="M69.1049 23.7135C69.1049 25.5514 68.6325 27.3894 67.686 29.0288L60.1339 42.1114C59.1781 43.7674 57.8033 45.1073 56.1896 46.0281C53.894 47.3367 52.0322 46.2689 52.0322 43.6277C52.0322 42.4183 54.256 39.7974 54.7229 38.9868L62.275 25.9043C63.0562 24.5534 63.0562 22.8754 62.275 21.5245L54.7229 8.44192C54.2542 7.63138 52.0322 5.01046 52.0322 3.80109C52.0322 1.15995 53.8958 0.0939344 56.1896 1.40072C57.8033 2.32154 59.1781 3.65957 60.1339 5.3174L67.686 18.4C68.6325 20.0394 69.1049 21.8774 69.1049 23.7153V23.7135Z" fill="#FF7B00"/>
<path d="M51.4622 23.7134C51.4622 25.5514 50.9898 27.3893 50.0432 29.0288L42.4911 42.1113C40.5962 45.3884 37.0692 47.4248 33.2829 47.4248H18.1768C14.3907 47.4248 10.8636 45.3884 8.97049 42.1095L1.41835 29.0269C-0.474738 25.748 -0.474738 21.6751 1.41835 18.3962L8.97049 5.31366C10.8636 2.03475 14.3907 -0.00170816 18.1768 -0.00170832L33.2829 -0.00170898C37.0692 -0.00170914 40.5962 2.03474 42.4892 5.31365L50.0414 18.3962C50.9879 20.0357 51.4604 21.8736 51.4604 23.7116L51.4622 23.7134ZM6.24482 23.7134C6.24482 24.4706 6.43964 25.2279 6.82929 25.9042L14.3833 38.9868C15.1626 40.3377 16.6164 41.1777 18.1768 41.1777H33.2829C34.8434 41.1777 36.2972 40.3377 37.0765 38.9868L44.6286 25.9042C45.4097 24.5533 45.4079 22.8753 44.6286 21.5244L37.0747 8.44185C36.2953 7.09096 34.8415 6.25101 33.2811 6.25101H18.175C16.6145 6.25101 15.1607 7.09096 14.3814 8.44185L6.82929 21.5244C6.43964 22.2007 6.24482 22.958 6.24482 23.7153V23.7134Z" fill="#FF7B00"/>
<path d="M29.4382 15.5676H22.022C21.4063 15.5676 20.8384 15.8966 20.5297 16.4296L16.8225 22.8514C16.5156 23.3844 16.5156 24.0406 16.8225 24.5736L20.5297 30.9954C20.8366 31.5284 21.4063 31.8574 22.022 31.8574H29.4382C30.0539 31.8574 30.6218 31.5284 30.9306 30.9954L34.6377 24.5736C34.9447 24.0406 34.9447 23.3844 34.6377 22.8514L30.9306 16.4296C30.6236 15.8966 30.0539 15.5676 29.4382 15.5676Z" fill="#FF7B00"/>
</g>
</g>
<defs>
<clipPath id="clip0_2181_7556">
<rect width="69.8182" height="48" fill="white"/>
</clipPath>
</defs>
</svg>
